inDegrees=no
num_controls=7
num_derivatives=13
num_iterations=161
num_multipliers=7
num_parameters=0
num_slacks=7
num_states=26
objective=6.008425
objective_accelerations=1.014633
objective_balance=0.077122
objective_effort=0.674819
objective_height=4.161509
objective_ligament=0.080343
solver_duration=1664.096083
status=Solve_Succeeded
success=true
DataType=double
version=3
OpenSimVersion=4.4-2022-07-23-0e9fedc
endheader
time	/jointset/ground_pelvis/pelvis_tilt/value	/jointset/ground_pelvis/pelvis_tx/value	/jointset/ground_pelvis/pelvis_ty/value	/jointset/hip_l/hip_flexion_l/value	/jointset/hip_l/hip_adduction_l/value	/jointset/hip_l/hip_rotation_l/value	/jointset/back/lumbar_extension/value	/jointset/patellofemoral_l/patellar_flexion_l/value	/jointset/knee_l/knee_flexion_l/value	/jointset/knee_l/knee_adduction_l/value	/jointset/knee_l/knee_rotation_l/value	/jointset/ankle_l/ankle_angle_l/value	/jointset/subtalar_l/subtalar_angle_l/value	/jointset/ground_pelvis/pelvis_tilt/speed	/jointset/ground_pelvis/pelvis_tx/speed	/jointset/ground_pelvis/pelvis_ty/speed	/jointset/hip_l/hip_flexion_l/speed	/jointset/hip_l/hip_adduction_l/speed	/jointset/hip_l/hip_rotation_l/speed	/jointset/back/lumbar_extension/speed	/jointset/patellofemoral_l/patellar_flexion_l/speed	/jointset/knee_l/knee_flexion_l/speed	/jointset/knee_l/knee_adduction_l/speed	/jointset/knee_l/knee_rotation_l/speed	/jointset/ankle_l/ankle_angle_l/speed	/jointset/subtalar_l/subtalar_angle_l/speed	/forceset/tau_hip_flexion_l	/forceset/tau_hip_adduction_l	/forceset/tau_hip_rotation_l	/forceset/tau_knee_flexion_l	/forceset/tau_ankle_angle_l	/forceset/tau_subtalar_angle_l	/forceset/tau_lumbar_extension	lambda_cid13_p0	lambda_cid13_p1	lambda_cid13_p2	lambda_cid13_p3	lambda_cid13_p4	lambda_cid13_p5	lambda_cid14_p0	/jointset/ground_pelvis/pelvis_tilt/accel	/jointset/ground_pelvis/pelvis_tx/accel	/jointset/ground_pelvis/pelvis_ty/accel	/jointset/hip_l/hip_flexion_l/accel	/jointset/hip_l/hip_adduction_l/accel	/jointset/hip_l/hip_rotation_l/accel	/jointset/back/lumbar_extension/accel	/jointset/patellofemoral_l/patellar_flexion_l/accel	/jointset/knee_l/knee_flexion_l/accel	/jointset/knee_l/knee_adduction_l/accel	/jointset/knee_l/knee_rotation_l/accel	/jointset/ankle_l/ankle_angle_l/accel	/jointset/subtalar_l/subtalar_angle_l/accel	gamma_cid13_p0	gamma_cid13_p1	gamma_cid13_p2	gamma_cid13_p3	gamma_cid13_p4	gamma_cid13_p5	gamma_cid14_p0
1	-0.1337856210866612	-0.05549676565232384	0.4259153813302074	2.089511441268126	-0.3007031297930999	0.120941100142617	-0.9599296765467916	2.093071872241689	2.09307187224171	0.1745096463008244	-0.1745305444494265	0.2869517721423524	0.104596349217229	0.04605273556124526	0.002381865519644906	0.07297126529951976	-0.2825853731184146	-0.02002709337841389	-0.05609100805077601	1.18230275404497e-05	-0.1418797813172347	-0.1418797813173027	-0.009443895758936638	0.0002184933398859046	0.08916328799181636	0.01771939991358381	-0.4226967207879745	-0.02261343755364201	-0.06243566903758016	-0.4155098565812622	0.03809341251789718	-0.004720387456447216	0.4601832810054926	-45.94649171184444	20.04720053651844	-15.01822951583311	36.19518822472133	-863.4429354566792	-17.9868279096154	-0.02305605071546949	-0.6375527241229305	-0.7648005703004307	2.738861078046753	-8.037884496971241	-0.3183482577575223	-1.781469287998546	-0.001431060182871993	-7.589303890006375	-7.589303890006374	-1.370437973158455	-0.002902086360817719	0.6086213174761811	-0.09923119300182622	2.116163287010518e-08	1.611793817809629e-08	-3.021913009133783e-07	-4.135200755023611e-08	-6.881784498201889e-08	-3.131711073314571e-07	3.035988035545377e-08
1.01	-0.1333568356268321	-0.0555110416959018	0.4267822565471179	2.086283084891134	-0.3009178393042272	0.1202954097438708	-0.9599295864058079	2.091273154414859	2.091273154414889	0.1743434515531191	-0.1745277567981484	0.2878738666608756	0.1047705307511086	0.03973761230196422	-0.005215714626024092	0.100420495397977	-0.3630960932505886	-0.02289611310084169	-0.07302339103382417	5.80536212077846e-06	-0.217897580923439	-0.2178975809235143	-0.02381653557324079	0.0003328357473585069	0.09519587559383857	0.01711228080287859	-0.4226495431233718	-0.02246459157589285	-0.06237807669063582	-0.4169979229722324	0.03862760752770144	-0.00433176666329356	0.460586051004309	-45.79010467346453	19.85496763501088	-14.99206858566263	35.7696854036076	-864.219425192158	-18.47547947486159	-0.02318858051847419	-0.6235026508582845	-0.754047175744278	2.750439721065374	-8.059194039401344	-0.2682999748968129	-1.645566189498419	-0.0002470929084853741	-7.613097831501388	-7.613097831502274	-1.473851130899506	0.0175699700613118	0.5916160490330074	-0.04208906369704699	3.647526495045899e-08	-3.480261023146316e-08	-4.322747233305887e-07	-7.159672713654311e-08	-1.088555166229213e-07	-5.984982900296129e-07	5.131066679081177e-08
1.02	-0.1329902035044074	-0.05560065562874471	0.427924121214077	2.082249315659216	-0.3011606632416637	0.1194811068380817	-0.959929568436016	2.088713242624852	2.088713242624891	0.1740328955781377	-0.1745240322094886	0.2888544947689113	0.1049385137351632	0.03362206808159047	-0.01268571233334865	0.1279691553092379	-0.443667944105198	-0.0256499786397257	-0.08981350945848356	-2.611230772799774e-06	-0.2941185739526047	-0.2941185739526835	-0.03831614120087821	0.0004058807852241236	0.1008700058945655	0.01647968994848025	-0.422602365458744	-0.0223157455981387	-0.06232048434378378	-0.4184859893632061	0.03916180253749472	-0.003943145870138178	0.4609888210031464	-45.62395121675233	19.66132123429309	-14.96602045666771	35.34240374726966	-864.849187850818	-18.93261952327402	-0.02338401454376731	-0.5976369163413421	-0.7392840826315349	2.758747040607498	-8.050110641458426	-0.2953174210490278	-1.753016376320722	-0.001910845677873156	-7.629942574598631	-7.629942574597846	-1.39583113582532	-0.01116156028272209	0.536929857217084	-0.1043255417408294	5.526999983026985e-08	-9.648922237002136e-08	-5.760266329097093e-07	-1.051725509433225e-07	-1.497366718281949e-07	-9.518988646858531e-07	7.783132785375176e-08
1.03	-0.1326834711315151	-0.05576416412686856	0.4293419008884997	2.077409923480341	-0.3014304283039252	0.118499856891246	-0.9599296188762949	2.085390392183376	2.085390392183434	0.1735766268922277	-0.1745199165268346	0.289889715650969	0.1050998950792561	0.02778167787920646	-0.01997819141141428	0.1555969371275435	-0.5241834567362129	-0.02827832254598613	-0.1064089931696728	-4.075617710767564e-06	-0.3704581889832676	-0.3704581889833502	-0.05294653201316187	0.0004121944170529289	0.1060812845485666	0.01578351193872754	-0.4224733100296438	-0.02215970841517399	-0.06213046485834194	-0.4202235363208078	0.04019679432816276	-0.003367478754495406	0.4614260467940164	-45.274449321289	19.33849510795142	-14.90128211325221	34.57380835665206	-865.482261021855	-19.65334799727771	-0.02362533879265327	-0.5686432391964891	-0.7185883985876937	2.766279012163521	-8.0482112064578	-0.2427702191685709	-1.608679105917704	0.001245947205271438	-7.636993206177323	-7.636993206178301	-1.497895326027895	0.005588054203109309	0.4992931282718971	-0.05411296136277099	7.410025616721805e-08	-1.582856923017327e-07	-7.199180168476249e-07	-1.387823656094944e-07	-1.906264340086152e-07	-1.305994065790646e-06	1.044088243720753e-07
1.04	-0.1324334232940554	-0.05599946913141122	0.4310362554330497	2.071766188248649	-0.301725712274004	0.1173534791598076	-0.9599295819240222	2.081303941143818	2.081303941143905	0.1729738038436702	-0.1745159256619395	0.290974262571323	0.1052539448370977	0.02228516099644891	-0.02704501361711272	0.1832841293347019	-0.6045365546686194	-0.03075376020240059	-0.1228390663768426	1.486729164085972e-05	-0.4468386935690236	-0.4468386935691147	-0.06762701370937176	0.000380917220377031	0.110735213553773	0.01501337269816137	-0.4223442546005417	-0.02200367123222208	-0.06194044537305922	-0.4219610832784124	0.04123178611882381	-0.002791811638872428	0.4618632725848846	-44.91576621804489	19.01348616954426	-14.83553817228083	33.80729367130252	-865.9757536945601	-20.34802502384161	-0.02392754883593369	-0.5288622524159418	-0.6941527081581033	2.770629118378075	-8.017627701736808	-0.2647361710799557	-1.719934275516761	0.002170613580193236	-7.638120485617224	-7.638120485617374	-1.405849312610681	-0.01867972598391561	0.4254599274581131	-0.1191177879037165	9.281470268959925e-08	-2.251902407114565e-07	-8.644350102908089e-07	-1.664563630585326e-07	-2.262409558293631e-07	-1.692061427318535e-06	1.342257451841229e-07
1.05	-0.1322362719768062	-0.05630415297803552	0.4330077333833798	2.06531992795639	-0.3020449064029108	0.1160439439491006	-0.9599293465992481	2.076453739715173	2.076453739715183	0.1722237974954623	-0.174512448218374	0.2921022901865366	0.1053998944259138	0.0172353158847032	-0.03383837860048543	0.211017533546267	-0.6846740557027285	-0.03304656818816269	-0.1390265658071367	2.710382339491684e-05	-0.5231849781653453	-0.5231849781653872	-0.08237654007949689	0.0003242314790877541	0.1147542443000948	0.01417045591423593	-0.4221578118677424	-0.02182551873407524	-0.06161017108597615	-0.4239435666351488	0.04275349896169059	-0.002040967011613824	0.4623397161802608	-44.38042595891918	18.56561140673888	-14.73209654625269	32.71288230068591	-866.4889158090602	-21.29763209787455	-0.02427159118584156	-0.4795010887707045	-0.6639608940066992	2.775554298575487	-8.005582859607372	-0.2056214987619216	-1.561921560833863	-1.390366069151496e-05	-7.630423478392005	-7.630423478384447	-1.509714997197693	0.002024906761478898	0.3727132854357124	-0.06762525511168518	1.115255301552752e-07	-2.922544165736182e-07	-1.008971554031033e-06	-1.939448662195354e-07	-2.616906263888713e-07	-2.079127918859647e-06	1.641438980053494e-07
1.06	-0.1320869102003237	-0.05667517697460903	0.4352567170210316	2.058073538342708	-0.3023858422889665	0.1145737809872893	-0.9599291417245039	2.070840567234215	2.070840567234164	0.1713262537439454	-0.1745093000512004	0.2932670258366545	0.1055372655205957	0.01272725284429128	-0.04031304360695767	0.2387852667990413	-0.7645624189512112	-0.03510211163142608	-0.1549646165993499	8.777289805575575e-06	-0.5994329040317632	-0.5994329040317549	-0.09713449436899738	0.000315061936317581	0.1180768205350727	0.01329767387132425	-0.4219713691349792	-0.02164736623591655	-0.06127989679892062	-0.425926049991884	0.04427521180456838	-0.001290122384333598	0.4628161597756054	-43.83681179066413	18.11473561622502	-14.62640280482447	31.62583237129176	-866.8735623919899	-22.22776265881412	-0.02467291619874645	-0.4205058381490881	-0.6304127127780199	2.777494926619938	-7.967800144611545	-0.2172832625802759	-1.670044547900532	-0.003941999488829756	-7.618448739636438	-7.618448739636412	-1.407534896485827	-0.009176486280231717	0.2861690251892828	-0.1250908397010672	1.305080888933374e-07	-3.662283107303071e-07	-1.16014348210752e-06	-2.193360918777142e-07	-2.935077768574766e-07	-2.485705746180032e-06	1.957554409092841e-07
1.07	-0.1319797256379815	-0.0571092050171863	0.4377834645804309	2.050029935183348	-0.3027462721273463	0.1129456264193802	-0.9599291877657681	2.064465652147509	2.064465652147438	0.1702809811925695	-0.1745063038009866	0.2944611388276646	0.1056654075695029	0.008816885959454075	-0.04642501837164012	0.266562428372764	-0.8440812059444935	-0.03694999629631334	-0.1706252708501113	-1.372280152702332e-05	-0.6755126812400627	-0.6755126812400706	-0.1119153992685363	0.0002806529924238673	0.1205986378572514	0.01230268689728769	-0.4216946698343821	-0.02146800686697058	-0.06080632933007324	-0.4280962612816145	0.04624206323858594	-0.0003776682861200971	0.4633084179982487	-43.12750508958115	17.54835874445301	-14.48367417424879	30.23908128127298	-867.2142393716575	-23.39019647434114	-0.02511543711990932	-0.3601982817360866	-0.591507158466881	2.777488792975996	-7.932348598227557	-0.1632626316492161	-1.507882213829333	-0.0007646046091303984	-7.597173340685423	-7.597173340687735	-1.512498953192124	-0.001449160823252778	0.2131141899265942	-0.09068349678941957	1.49505101422484e-07	-4.405697430941517e-07	-1.31166835615934e-06	-2.44615760221913e-07	-3.251317081723104e-07	-2.893321410509954e-06	2.274570577537883e-07
1.08	-0.1319084239781095	-0.05760233626744062	0.4405879161596131	2.041193458029757	-0.3031241251250146	0.1111621040389447	-0.9599293309259723	2.057331053062867	2.057331053062766	0.1690880734589567	-0.1745038268526709	0.2956760552127325	0.1057828035745627	0.005550672351223512	-0.05213368514236496	0.2943260707556302	-0.9231372177994069	-0.03858674348944918	-0.1860381791074838	-1.064651899566011e-05	-0.7513697036187109	-0.7513697036187341	-0.1266615308282484	0.000211201553363167	0.122237499347202	0.01114846510187745	-0.4214179705337509	-0.02128864749799525	-0.06033276186113972	-0.4302664725713476	0.0482089146725955	0.0005347858121287111	0.4638006762209233	-42.41115105689889	16.97813162968876	-14.33734270169344	28.86638785113163	-867.441574863978	-24.54062828428325	-0.02561002580375999	-0.2916751828276992	-0.5497511139865106	2.774791088448626	-7.875245116937817	-0.175055768230019	-1.620495349222704	0.00117327528387262	-7.573897773706165	-7.57389777370599	-1.400580228520534	-0.01618498531368723	0.1095778587435954	-0.1569378039758476	1.676482262823175e-07	-5.152684682362526e-07	-1.45274316637909e-06	-2.633232313114923e-07	-3.479015050908518e-07	-3.300344305761882e-06	2.601109201206286e-07
